<svg width="227" height="64" viewBox="0 0 227 64" fill="none" xmlns="http://www.w3.org/2000/svg">
<mask id="mask0_9_122221" style="mask-type:luminance" maskUnits="userSpaceOnUse" x="0" y="0" width="227" height="64">
<path d="M226.941 0.797852H0V63.2016H226.941V0.797852Z" fill="white"/>
</mask>
<g mask="url(#mask0_9_122221)">
<path d="M6.74902 56.2098C8.32528 57.3415 9.98237 58.7157 11.7607 60.292L15.7216 55.8057C14.1453 54.1082 12.4882 52.6936 10.8311 51.5215L6.74902 56.2098Z" fill="#EDEFF1"/>
</g>
<mask id="mask1_9_122221" style="mask-type:luminance" maskUnits="userSpaceOnUse" x="0" y="0" width="227" height="64">
<path d="M226.941 0.797852H0V63.2016H226.941V0.797852Z" fill="white"/>
</mask>
<g mask="url(#mask1_9_122221)">
<path d="M14.9551 56.6132C16.5313 57.7448 18.1884 59.119 19.9668 60.6953L23.9276 56.209C22.3514 54.5115 20.6943 53.0969 19.0372 51.9248L14.9551 56.6132Z" fill="#EDEFF1"/>
</g>
<mask id="mask2_9_122221" style="mask-type:luminance" maskUnits="userSpaceOnUse" x="0" y="0" width="227" height="64">
<path d="M226.941 0.797852H0V63.2016H226.941V0.797852Z" fill="white"/>
</mask>
<g mask="url(#mask2_9_122221)">
<path d="M134.265 14.418L138.549 14.9838V34.3031H154.675V14.418L158.959 14.9838V49.3382H154.675V38.0214H138.549V49.3382H134.265V14.418Z" fill="#EDEFF1"/>
</g>
<mask id="mask3_9_122221" style="mask-type:luminance" maskUnits="userSpaceOnUse" x="0" y="0" width="227" height="64">
<path d="M226.941 0.797852H0V63.2016H226.941V0.797852Z" fill="white"/>
</mask>
<g mask="url(#mask3_9_122221)">
<path d="M176.217 34.7481C177.107 34.6269 177.672 34.2631 177.996 33.6569C178.157 33.3335 178.238 32.8081 178.238 32.1614C178.238 30.8277 177.753 29.8981 176.824 29.2918C175.894 28.6856 174.56 28.4027 172.822 28.4027C170.802 28.4027 169.387 28.9281 168.579 30.0194C168.094 30.6256 167.811 32.2827 167.649 33.4548L164.052 32.8889C164.133 30.0598 165.022 27.9177 166.8 26.786C168.538 25.6947 170.6 25.1289 172.903 25.1289C175.571 25.1289 177.753 25.6543 179.451 26.6647C181.108 27.6752 181.957 29.2919 181.957 31.4339V44.6099C181.957 45.014 182.037 45.3374 182.199 45.5799C182.361 45.8224 182.725 45.9436 183.25 45.9436C183.412 45.9436 183.614 45.9436 183.816 45.9032C184.018 45.8628 184.826 45.8628 185.069 45.8224L184.503 48.6515C183.897 48.8132 183.452 48.9345 183.129 48.9749C182.805 49.0153 182.401 49.0557 181.835 49.0557C180.502 49.0557 179.532 48.5707 178.966 47.6411C178.642 47.1561 178.44 46.4286 178.319 45.5394C177.551 46.5499 176.42 47.439 174.965 48.207C173.51 48.9749 171.893 49.3386 170.115 49.3386C168.013 49.3386 166.275 48.692 164.901 47.3986C163.567 46.1053 162.88 44.4886 162.88 42.5486C162.88 40.4469 163.527 38.7898 164.86 37.6177C166.194 36.4456 167.932 35.7181 170.074 35.4756L176.217 34.7481ZM168.134 45.1353C168.942 45.782 169.912 46.1053 171.004 46.1053C172.337 46.1053 173.671 45.782 174.924 45.1757C177.066 44.1249 178.117 42.4273 178.117 40.0832V37.0115C177.632 37.2944 177.026 37.5773 176.298 37.7794C175.571 37.9815 174.843 38.1027 174.116 38.224L171.812 38.5069C170.438 38.709 169.387 38.9919 168.659 39.3961C167.487 40.0832 166.881 41.134 166.881 42.589C166.922 43.5994 167.326 44.4886 168.134 45.1353Z" fill="#EDEFF1"/>
</g>
<mask id="mask4_9_122221" style="mask-type:luminance" maskUnits="userSpaceOnUse" x="0" y="0" width="227" height="64">
<path d="M226.941 0.797852H0V63.2016H226.941V0.797852Z" fill="white"/>
</mask>
<g mask="url(#mask4_9_122221)">
<path d="M190.283 26.0986L194.689 44.1246L199.175 26.0986H203.459L207.946 44.0033L212.634 26.0986H216.474L209.845 48.9746H205.844L201.196 31.2316L196.669 48.9746H192.708L186.08 26.0986H190.283Z" fill="#EDEFF1"/>
</g>
<mask id="mask5_9_122221" style="mask-type:luminance" maskUnits="userSpaceOnUse" x="0" y="0" width="227" height="64">
<path d="M226.941 0.797852H0V63.2016H226.941V0.797852Z" fill="white"/>
</mask>
<g mask="url(#mask5_9_122221)">
<path d="M220.515 26.0176H224.435V49.3381H220.515V26.0176Z" fill="#EDEFF1"/>
</g>
<mask id="mask6_9_122221" style="mask-type:luminance" maskUnits="userSpaceOnUse" x="0" y="0" width="227" height="64">
<path d="M226.941 0.797852H0V63.2016H226.941V0.797852Z" fill="white"/>
</mask>
<g mask="url(#mask6_9_122221)">
<path d="M84.2694 63.2016C80.551 58.7153 77.3985 54.1078 74.8118 49.5002C73.8418 49.5406 72.9122 49.5407 71.9826 49.5407H62.9697C57.7559 49.5407 53.4717 45.2969 53.4717 40.0427V14.4184H57.8367V40.0427C57.8367 42.8719 60.1405 45.1756 62.9292 45.1756H71.9422C72.1443 45.1756 72.306 45.1756 72.5081 45.1756C70.6085 41.2148 69.1534 37.2943 68.2239 33.4547C66.0818 24.8459 66.4859 16.803 69.3151 10.7808C72.306 4.43538 77.7218 0.797852 84.1481 0.797852C92.6357 0.797852 100.719 5.24371 107.226 13.4483C111.47 6.57747 116.562 2.85912 121.776 2.85912C126.06 2.85912 128.93 6.77956 128.93 12.64C128.93 21.5317 123.191 29.8576 117.371 35.1522C117.856 37.5772 118.139 39.881 118.139 42.0635C118.139 45.701 117.411 48.6515 116.037 50.834C114.38 53.4207 111.834 54.7949 108.641 54.7949C106.216 54.7949 100.962 53.7844 99.5874 45.3373C92.8782 47.6411 85.9265 48.7727 79.6618 49.2577C81.8039 52.8548 84.431 56.5732 87.5836 60.4128L84.2694 63.2016ZM103.872 43.7206C104.235 46.954 105.448 50.4298 108.722 50.4298C110.379 50.4298 111.551 49.8236 112.4 48.4898C113.329 47.0348 113.814 44.8119 113.814 42.1039C113.814 40.8914 113.733 39.6385 113.531 38.3452C110.5 40.4873 107.226 42.2656 103.872 43.7206ZM84.1885 5.16288C79.4193 5.16288 75.5797 7.78998 73.3164 12.5996C70.2043 19.228 70.083 30.8276 77.3581 45.014C84.1885 44.6502 91.9486 43.5185 99.3045 40.8106V40.7298C99.3045 33.6164 101.487 24.8863 105.003 17.6517C97.122 6.81998 88.6344 5.16288 84.1885 5.16288ZM107.832 22.0167C105.529 27.3922 103.993 33.4951 103.71 38.9514C106.822 37.4964 109.813 35.6776 112.561 33.4951C111.551 29.6555 109.934 25.6947 107.832 22.0167ZM110.136 17.3688C112.723 21.3701 114.784 25.8563 116.199 30.3022C122.383 24.0376 124.646 17.2475 124.646 12.64C124.646 9.97249 123.797 7.26456 121.857 7.26456C117.654 7.22414 113.45 11.4275 110.136 17.3688Z" fill="#EDEFF1"/>
</g>
<mask id="mask7_9_122221" style="mask-type:luminance" maskUnits="userSpaceOnUse" x="0" y="0" width="227" height="64">
<path d="M226.941 0.797852H0V63.2016H226.941V0.797852Z" fill="white"/>
</mask>
<g mask="url(#mask7_9_122221)">
<path d="M37.4259 49.0559C35.7284 49.0559 33.7884 48.8134 31.5654 48.1668L32.7375 43.9634C37.6684 45.3376 41.3059 44.7313 43.4884 42.1447C44.418 41.0534 45.0243 39.6792 45.388 38.1838C39.1234 40.0026 35.8092 38.5476 34.0713 36.8096C31.6463 34.3846 31.2017 30.3833 32.8992 26.3012C34.5563 22.2999 37.7896 19.6729 41.1038 19.6729C43.9734 19.6729 46.6005 21.8149 48.3384 25.4929C50.9251 31.0704 51.2485 39.7601 46.843 44.9738C45.1051 47.0351 42.1951 49.0559 37.4259 49.0559ZM41.1038 24.0783C39.6084 24.0783 37.8705 25.695 36.9409 27.9987C35.9709 30.3429 36.0517 32.6467 37.1834 33.7379C38.5576 35.1121 41.6697 34.9909 45.8326 33.4954C45.7114 31.3129 45.1859 29.1304 44.3776 27.3925C43.4076 25.3312 42.1951 24.0783 41.1038 24.0783Z" fill="#EDEFF1"/>
</g>
<mask id="mask8_9_122221" style="mask-type:luminance" maskUnits="userSpaceOnUse" x="0" y="0" width="227" height="64">
<path d="M226.941 0.797852H0V63.2016H226.941V0.797852Z" fill="white"/>
</mask>
<g mask="url(#mask8_9_122221)">
<path d="M14.0662 48.6915C7.96324 48.6915 3.75988 46.9132 1.57736 43.4373C-1.85807 37.9406 1.13278 30.3423 2.54737 27.3514L6.50823 29.251C4.68947 33.0502 3.39612 38.1427 5.29572 41.1336C6.62948 43.2353 9.57992 44.3265 14.0662 44.3265C20.8967 44.3265 23.8067 42.3461 24.0896 40.9719C24.2513 40.204 23.4833 39.3148 22.1496 38.749C20.2904 37.9406 19.1587 37.3748 16.6125 36.1623C12.8133 34.3031 11.4391 30.706 13.177 26.9068C15.602 21.6526 23.0792 17.9343 29.5055 20.723L27.7675 24.7243C23.3217 22.7843 18.5121 25.7752 17.1783 28.7256C16.4508 30.3423 16.855 31.3931 18.5121 32.2014C21.0179 33.414 22.1092 33.9394 23.9279 34.7073C27.2421 36.1623 28.98 38.9511 28.3738 41.8207C28.0504 43.4778 26.0296 48.6915 14.0662 48.6915Z" fill="#EDEFF1"/>
</g>
<mask id="mask9_9_122221" style="mask-type:luminance" maskUnits="userSpaceOnUse" x="0" y="0" width="227" height="64">
<path d="M226.941 0.797852H0V63.2016H226.941V0.797852Z" fill="white"/>
</mask>
<g mask="url(#mask9_9_122221)">
<path d="M217.969 19.1473C219.545 20.279 221.202 21.6532 222.98 23.2295L226.941 18.7432C225.365 17.0457 223.708 15.6311 222.051 14.459L217.969 19.1473Z" fill="#EDEFF1"/>
</g>
</svg>
